<svg id="visual" viewBox="0 0 2000 600" width="2000" height="600" xmlns="http://www.w3.org/2000/svg" xmlns:xlink="http://www.w3.org/1999/xlink" version="1.1"><path d="M0 464L133 395L267 396L400 428L533 454L667 436L800 408L933 433L1067 428L1200 450L1333 410L1467 421L1600 397L1733 428L1867 452L2000 395L2000 601L1867 601L1733 601L1600 601L1467 601L1333 601L1200 601L1067 601L933 601L800 601L667 601L533 601L400 601L267 601L133 601L0 601Z" fill="#001122"></path><path d="M0 480L133 448L267 448L400 465L533 482L667 465L800 465L933 427L1067 430L1200 488L1333 467L1467 450L1600 437L1733 453L1867 455L2000 463L2000 601L1867 601L1733 601L1600 601L1467 601L1333 601L1200 601L1067 601L933 601L800 601L667 601L533 601L400 601L267 601L133 601L0 601Z" fill="#1d2837"></path><path d="M0 488L133 457L267 507L400 479L533 491L667 456L800 505L933 439L1067 468L1200 470L1333 465L1467 499L1600 492L1733 457L1867 498L2000 504L2000 601L1867 601L1733 601L1600 601L1467 601L1333 601L1200 601L1067 601L933 601L800 601L667 601L533 601L400 601L267 601L133 601L0 601Z" fill="#37404d"></path><path d="M0 501L133 481L267 465L400 517L533 481L667 504L800 517L933 519L1067 471L1200 470L1333 467L1467 492L1600 518L1733 513L1867 475L2000 461L2000 601L1867 601L1733 601L1600 601L1467 601L1333 601L1200 601L1067 601L933 601L800 601L667 601L533 601L400 601L267 601L133 601L0 601Z" fill="#535a65"></path><path d="M0 511L133 497L267 539L400 526L533 521L667 513L800 503L933 504L1067 539L1200 510L1333 494L1467 493L1600 487L1733 528L1867 539L2000 525L2000 601L1867 601L1733 601L1600 601L1467 601L1333 601L1200 601L1067 601L933 601L800 601L667 601L533 601L400 601L267 601L133 601L0 601Z" fill="#6f757d"></path><path d="M0 534L133 547L267 522L400 521L533 515L667 526L800 551L933 529L1067 521L1200 550L1333 556L1467 536L1600 529L1733 524L1867 516L2000 525L2000 601L1867 601L1733 601L1600 601L1467 601L1333 601L1200 601L1067 601L933 601L800 601L667 601L533 601L400 601L267 601L133 601L0 601Z" fill="#8d9197"></path><path d="M0 537L133 535L267 545L400 556L533 550L667 556L800 547L933 537L1067 540L1200 558L1333 567L1467 556L1600 566L1733 559L1867 548L2000 564L2000 601L1867 601L1733 601L1600 601L1467 601L1333 601L1200 601L1067 601L933 601L800 601L667 601L533 601L400 601L267 601L133 601L0 601Z" fill="#acaeb1"></path><path d="M0 558L133 558L267 587L400 571L533 585L667 579L800 575L933 558L1067 569L1200 588L1333 567L1467 576L1600 581L1733 557L1867 559L2000 573L2000 601L1867 601L1733 601L1600 601L1467 601L1333 601L1200 601L1067 601L933 601L800 601L667 601L533 601L400 601L267 601L133 601L0 601Z" fill="#cccccc"></path></svg>