<svg id="visual" viewBox="0 0 3000 600" width="3000" height="600" xmlns="http://www.w3.org/2000/svg" xmlns:xlink="http://www.w3.org/1999/xlink" version="1.1"><path d="M0 528L214 527L429 527L643 509L857 532L1071 504L1286 527L1500 531L1714 523L1929 502L2143 522L2357 530L2571 530L2786 510L3000 506L3000 601L2786 601L2571 601L2357 601L2143 601L1929 601L1714 601L1500 601L1286 601L1071 601L857 601L643 601L429 601L214 601L0 601Z" fill="#ffffff"></path><path d="M0 510L214 537L429 510L643 528L857 526L1071 535L1286 528L1500 511L1714 532L1929 515L2143 538L2357 524L2571 512L2786 525L3000 541L3000 601L2786 601L2571 601L2357 601L2143 601L1929 601L1714 601L1500 601L1286 601L1071 601L857 601L643 601L429 601L214 601L0 601Z" fill="#eaf3fe"></path><path d="M0 524L214 545L429 530L643 548L857 528L1071 531L1286 540L1500 546L1714 530L1929 533L2143 536L2357 548L2571 531L2786 545L3000 524L3000 601L2786 601L2571 601L2357 601L2143 601L1929 601L1714 601L1500 601L1286 601L1071 601L857 601L643 601L429 601L214 601L0 601Z" fill="#d5e6fd"></path><path d="M0 550L214 553L429 558L643 557L857 551L1071 533L1286 542L1500 535L1714 552L1929 533L2143 544L2357 542L2571 548L2786 544L3000 535L3000 601L2786 601L2571 601L2357 601L2143 601L1929 601L1714 601L1500 601L1286 601L1071 601L857 601L643 601L429 601L214 601L0 601Z" fill="#bfdafd"></path><path d="M0 548L214 547L429 564L643 562L857 559L1071 549L1286 553L1500 546L1714 554L1929 565L2143 563L2357 546L2571 556L2786 547L3000 552L3000 601L2786 601L2571 601L2357 601L2143 601L1929 601L1714 601L1500 601L1286 601L1071 601L857 601L643 601L429 601L214 601L0 601Z" fill="#a8cefb"></path><path d="M0 571L214 563L429 557L643 567L857 562L1071 572L1286 556L1500 561L1714 575L1929 569L2143 561L2357 561L2571 573L2786 575L3000 574L3000 601L2786 601L2571 601L2357 601L2143 601L1929 601L1714 601L1500 601L1286 601L1071 601L857 601L643 601L429 601L214 601L0 601Z" fill="#8fc3fa"></path><path d="M0 583L214 583L429 573L643 576L857 571L1071 574L1286 574L1500 575L1714 573L1929 578L2143 582L2357 581L2571 568L2786 573L3000 578L3000 601L2786 601L2571 601L2357 601L2143 601L1929 601L1714 601L1500 601L1286 601L1071 601L857 601L643 601L429 601L214 601L0 601Z" fill="#73b7f9"></path><path d="M0 584L214 587L429 586L643 588L857 588L1071 592L1286 583L1500 580L1714 592L1929 591L2143 590L2357 580L2571 582L2786 580L3000 592L3000 601L2786 601L2571 601L2357 601L2143 601L1929 601L1714 601L1500 601L1286 601L1071 601L857 601L643 601L429 601L214 601L0 601Z" fill="#4facf7"></path></svg>