<svg id="visual" viewBox="0 0 1600 540" width="1600" height="540" xmlns="http://www.w3.org/2000/svg" xmlns:xlink="http://www.w3.org/1999/xlink" version="1.1"><path d="M0 377L133 448L267 399L400 374L533 405L667 386L800 441L933 375L1067 380L1200 420L1333 404L1467 453L1600 358L1600 541L1467 541L1333 541L1200 541L1067 541L933 541L800 541L667 541L533 541L400 541L267 541L133 541L0 541Z" fill="#001122"></path><path d="M0 439L133 425L267 433L400 454L533 449L667 380L800 452L933 431L1067 472L1200 405L1333 393L1467 416L1600 402L1600 541L1467 541L1333 541L1200 541L1067 541L933 541L800 541L667 541L533 541L400 541L267 541L133 541L0 541Z" fill="#505763"></path><path d="M0 404L133 414L267 429L400 486L533 402L667 434L800 405L933 414L1067 439L1200 451L1333 449L1467 420L1600 470L1600 541L1467 541L1333 541L1200 541L1067 541L933 541L800 541L667 541L533 541L400 541L267 541L133 541L0 541Z" fill="#a7a9ad"></path><path d="M0 434L133 461L267 429L400 467L533 491L667 460L800 475L933 480L1067 447L1200 488L1333 462L1467 466L1600 448L1600 541L1467 541L1333 541L1200 541L1067 541L933 541L800 541L667 541L533 541L400 541L267 541L133 541L0 541Z" fill="#cccccc"></path><path d="M0 479L133 492L267 474L400 494L533 490L667 473L800 470L933 499L1067 466L1200 477L1333 465L1467 466L1600 452L1600 541L1467 541L1333 541L1200 541L1067 541L933 541L800 541L667 541L533 541L400 541L267 541L133 541L0 541Z" fill="#a7a9ad"></path><path d="M0 494L133 498L267 503L400 488L533 481L667 494L800 491L933 475L1067 471L1200 479L1333 497L1467 479L1600 506L1600 541L1467 541L1333 541L1200 541L1067 541L933 541L800 541L667 541L533 541L400 541L267 541L133 541L0 541Z" fill="#505763"></path><path d="M0 503L133 528L267 508L400 496L533 507L667 529L800 516L933 500L1067 528L1200 518L1333 529L1467 529L1600 505L1600 541L1467 541L1333 541L1200 541L1067 541L933 541L800 541L667 541L533 541L400 541L267 541L133 541L0 541Z" fill="#001122"></path></svg>